<svg xmlns="http://www.w3.org/2000/svg" viewBox="0 0 1123 819"><defs><style>.cls-1{fill:#f64c72;}.cls-2,.cls-3{font-size:699.12px;font-family:Quicksand-Bold, Quicksand;font-weight:700;}.cls-2{fill:#242582;}.cls-3{fill:#ccc;}</style></defs><g id="Layer_6_copy" data-name="Layer 6 copy"><circle class="cls-1" cx="197.42" cy="55.87" r="21.84"/><circle class="cls-1" cx="197.42" cy="120.58" r="21.84"/><circle class="cls-1" cx="197.42" cy="185.3" r="21.84"/><circle class="cls-1" cx="262.14" cy="55.87" r="21.84"/><circle class="cls-1" cx="262.14" cy="120.58" r="21.84"/><circle class="cls-1" cx="262.14" cy="185.3" r="21.84"/><circle class="cls-1" cx="326.85" cy="55.87" r="21.84"/><circle class="cls-1" cx="326.85" cy="120.58" r="21.84"/><circle class="cls-1" cx="326.85" cy="185.3" r="21.84"/><circle class="cls-1" cx="391.57" cy="55.87" r="21.84"/><circle class="cls-1" cx="391.57" cy="120.58" r="21.84"/><circle class="cls-1" cx="391.57" cy="185.3" r="21.84"/><circle class="cls-1" cx="194.49" cy="248.31" r="21.84"/><circle class="cls-1" cx="194.49" cy="313.02" r="21.84"/><circle class="cls-1" cx="194.49" cy="377.74" r="21.84"/><circle class="cls-1" cx="259.21" cy="248.31" r="21.84"/><circle class="cls-1" cx="259.21" cy="313.02" r="21.84"/><circle class="cls-1" cx="259.21" cy="377.74" r="21.84"/><circle class="cls-1" cx="323.93" cy="248.31" r="21.84"/><circle class="cls-1" cx="323.93" cy="313.02" r="21.84"/><circle class="cls-1" cx="323.93" cy="377.74" r="21.84"/><circle class="cls-1" cx="388.64" cy="248.31" r="21.84"/><circle class="cls-1" cx="388.64" cy="313.02" r="21.84"/><circle class="cls-1" cx="388.64" cy="377.74" r="21.84"/><circle class="cls-1" cx="459.55" cy="54.81" r="21.84"/><circle class="cls-1" cx="459.55" cy="119.52" r="21.84"/><circle class="cls-1" cx="459.55" cy="184.24" r="21.84"/><circle class="cls-1" cx="524.27" cy="54.81" r="21.84"/><circle class="cls-1" cx="524.27" cy="119.52" r="21.84"/><circle class="cls-1" cx="524.27" cy="184.24" r="21.84"/><circle class="cls-1" cx="588.98" cy="54.81" r="21.84"/><circle class="cls-1" cx="588.98" cy="119.52" r="21.84"/><circle class="cls-1" cx="588.98" cy="184.24" r="21.84"/><circle class="cls-1" cx="653.7" cy="54.81" r="21.84"/><circle class="cls-1" cx="653.7" cy="119.52" r="21.84"/><circle class="cls-1" cx="653.7" cy="184.24" r="21.84"/><circle class="cls-1" cx="456.63" cy="247.25" r="21.84"/><circle class="cls-1" cx="456.63" cy="311.96" r="21.84"/><circle class="cls-1" cx="456.63" cy="376.68" r="21.84"/><circle class="cls-1" cx="521.34" cy="247.25" r="21.84"/><circle class="cls-1" cx="521.34" cy="311.96" r="21.84"/><circle class="cls-1" cx="521.34" cy="376.68" r="21.84"/><circle class="cls-1" cx="586.06" cy="247.25" r="21.84"/><circle class="cls-1" cx="586.06" cy="311.96" r="21.84"/><circle class="cls-1" cx="586.06" cy="376.68" r="21.84"/><circle class="cls-1" cx="650.77" cy="247.25" r="21.84"/><circle class="cls-1" cx="650.77" cy="311.96" r="21.84"/><circle class="cls-1" cx="650.77" cy="376.68" r="21.84"/><circle class="cls-1" cx="724.95" cy="53.84" r="21.84"/><circle class="cls-1" cx="724.95" cy="118.56" r="21.84"/><circle class="cls-1" cx="724.95" cy="183.27" r="21.84"/><circle class="cls-1" cx="789.67" cy="53.84" r="21.84"/><circle class="cls-1" cx="789.67" cy="118.56" r="21.84"/><circle class="cls-1" cx="789.67" cy="183.27" r="21.84"/><circle class="cls-1" cx="854.38" cy="53.84" r="21.84"/><circle class="cls-1" cx="854.38" cy="118.56" r="21.84"/><circle class="cls-1" cx="854.38" cy="183.27" r="21.84"/><circle class="cls-1" cx="919.1" cy="53.84" r="21.84"/><circle class="cls-1" cx="919.1" cy="118.56" r="21.84"/><circle class="cls-1" cx="919.1" cy="183.27" r="21.84"/><circle class="cls-1" cx="722.02" cy="246.28" r="21.84"/><circle class="cls-1" cx="722.02" cy="311" r="21.84"/><circle class="cls-1" cx="722.02" cy="375.71" r="21.84"/><circle class="cls-1" cx="786.74" cy="246.28" r="21.84"/><circle class="cls-1" cx="786.74" cy="311" r="21.84"/><circle class="cls-1" cx="786.74" cy="375.71" r="21.84"/><circle class="cls-1" cx="851.46" cy="246.28" r="21.84"/><circle class="cls-1" cx="851.46" cy="311" r="21.84"/><circle class="cls-1" cx="851.46" cy="375.71" r="21.84"/><circle class="cls-1" cx="916.17" cy="246.28" r="21.84"/><circle class="cls-1" cx="916.17" cy="311" r="21.84"/><circle class="cls-1" cx="916.17" cy="375.71" r="21.84"/><circle class="cls-1" cx="191.14" cy="444.98" r="21.84"/><circle class="cls-1" cx="191.14" cy="509.7" r="21.84"/><circle class="cls-1" cx="191.14" cy="574.41" r="21.84"/><circle class="cls-1" cx="255.86" cy="444.98" r="21.84"/><circle class="cls-1" cx="255.86" cy="509.7" r="21.84"/><circle class="cls-1" cx="255.86" cy="574.41" r="21.84"/><circle class="cls-1" cx="320.58" cy="444.98" r="21.84"/><circle class="cls-1" cx="320.58" cy="509.7" r="21.84"/><circle class="cls-1" cx="320.58" cy="574.41" r="21.84"/><circle class="cls-1" cx="385.29" cy="444.98" r="21.84"/><circle class="cls-1" cx="385.29" cy="509.7" r="21.84"/><circle class="cls-1" cx="385.29" cy="574.41" r="21.84"/><circle class="cls-1" cx="188.22" cy="637.42" r="21.84"/><circle class="cls-1" cx="188.22" cy="702.14" r="21.84"/><circle class="cls-1" cx="188.22" cy="766.85" r="21.84"/><circle class="cls-1" cx="252.93" cy="637.42" r="21.84"/><circle class="cls-1" cx="252.93" cy="702.14" r="21.84"/><circle class="cls-1" cx="252.93" cy="766.85" r="21.84"/><circle class="cls-1" cx="317.65" cy="637.42" r="21.84"/><circle class="cls-1" cx="317.65" cy="702.14" r="21.84"/><circle class="cls-1" cx="317.65" cy="766.85" r="21.84"/><circle class="cls-1" cx="382.37" cy="637.42" r="21.84"/><circle class="cls-1" cx="382.37" cy="702.14" r="21.84"/><circle class="cls-1" cx="382.37" cy="766.85" r="21.84"/><circle class="cls-1" cx="453.28" cy="443.92" r="21.84"/><circle class="cls-1" cx="453.28" cy="508.64" r="21.84"/><circle class="cls-1" cx="453.28" cy="573.35" r="21.84"/><circle class="cls-1" cx="517.99" cy="443.92" r="21.84"/><circle class="cls-1" cx="517.99" cy="508.64" r="21.84"/><circle class="cls-1" cx="517.99" cy="573.35" r="21.84"/><circle class="cls-1" cx="582.71" cy="443.92" r="21.84"/><circle class="cls-1" cx="582.71" cy="508.64" r="21.84"/><circle class="cls-1" cx="582.71" cy="573.35" r="21.84"/><circle class="cls-1" cx="647.42" cy="443.92" r="21.84"/><circle class="cls-1" cx="647.42" cy="508.64" r="21.84"/><circle class="cls-1" cx="647.42" cy="573.35" r="21.84"/><circle class="cls-1" cx="450.35" cy="636.36" r="21.84"/><circle class="cls-1" cx="450.35" cy="701.08" r="21.84"/><circle class="cls-1" cx="450.35" cy="765.79" r="21.84"/><circle class="cls-1" cx="515.07" cy="636.36" r="21.84"/><circle class="cls-1" cx="515.07" cy="701.08" r="21.84"/><circle class="cls-1" cx="515.07" cy="765.79" r="21.84"/><circle class="cls-1" cx="579.78" cy="636.36" r="21.84"/><circle class="cls-1" cx="579.78" cy="701.08" r="21.84"/><circle class="cls-1" cx="579.78" cy="765.79" r="21.84"/><circle class="cls-1" cx="644.5" cy="636.36" r="21.84"/><circle class="cls-1" cx="644.5" cy="701.08" r="21.84"/><circle class="cls-1" cx="644.5" cy="765.79" r="21.84"/><circle class="cls-1" cx="718.67" cy="442.96" r="21.84"/><circle class="cls-1" cx="718.67" cy="507.67" r="21.84"/><circle class="cls-1" cx="718.67" cy="572.39" r="21.84"/><circle class="cls-1" cx="783.39" cy="442.96" r="21.84"/><circle class="cls-1" cx="783.39" cy="507.67" r="21.84"/><circle class="cls-1" cx="783.39" cy="572.39" r="21.84"/><circle class="cls-1" cx="848.11" cy="442.96" r="21.84"/><circle class="cls-1" cx="848.11" cy="507.67" r="21.84"/><circle class="cls-1" cx="848.11" cy="572.39" r="21.84"/><circle class="cls-1" cx="912.82" cy="442.96" r="21.84"/><circle class="cls-1" cx="912.82" cy="507.67" r="21.84"/><circle class="cls-1" cx="912.82" cy="572.39" r="21.84"/><circle class="cls-1" cx="715.75" cy="635.4" r="21.84"/><circle class="cls-1" cx="715.75" cy="700.11" r="21.84"/><circle class="cls-1" cx="715.75" cy="764.83" r="21.84"/><circle class="cls-1" cx="780.46" cy="635.4" r="21.84"/><circle class="cls-1" cx="780.46" cy="700.11" r="21.84"/><circle class="cls-1" cx="780.46" cy="764.83" r="21.84"/><circle class="cls-1" cx="845.18" cy="635.4" r="21.84"/><circle class="cls-1" cx="845.18" cy="700.11" r="21.84"/><circle class="cls-1" cx="845.18" cy="764.83" r="21.84"/><circle class="cls-1" cx="909.9" cy="635.4" r="21.84"/><circle class="cls-1" cx="909.9" cy="700.11" r="21.84"/><circle class="cls-1" cx="909.9" cy="764.83" r="21.84"/><text class="cls-2" transform="translate(316.44 600.71)">M</text><text class="cls-2" transform="translate(302.46 614.69)">M</text><text class="cls-2" transform="translate(302.46 614.69)">M</text><text class="cls-2" transform="translate(302.46 614.69)">M</text><text class="cls-2" transform="translate(302.46 614.69)">M</text><text class="cls-2" transform="translate(302.46 614.69)">M</text><text class="cls-2" transform="translate(302.46 614.69)">M</text><text class="cls-2" transform="translate(302.46 614.69)">M</text><text class="cls-2" transform="translate(302.46 614.69)">M</text><text class="cls-2" transform="translate(307.12 614.69)">M</text><text class="cls-2" transform="translate(297.79 624.02)">M</text><text class="cls-2" transform="translate(288.47 633.34)">M</text><text class="cls-2" transform="translate(279.15 642.66)">M</text><text class="cls-2" transform="translate(269.83 651.98)">M</text><text class="cls-2" transform="translate(260.5 661.3)">M</text><text class="cls-2" transform="translate(251.18 670.62)">M</text><text class="cls-2" transform="translate(241.87 679.95)">M</text><text class="cls-2" transform="translate(232.54 689.27)">M</text><text class="cls-2" transform="translate(223.22 698.59)">M</text><text class="cls-2" transform="translate(213.9 707.91)">M</text><text class="cls-3" transform="translate(209.24 707.91)">M</text><circle class="cls-1" cx="980.21" cy="54.1" r="21.84"/><circle class="cls-1" cx="980.21" cy="118.81" r="21.84"/><circle class="cls-1" cx="980.21" cy="183.53" r="21.84"/><circle class="cls-1" cx="977.28" cy="246.54" r="21.84"/><circle class="cls-1" cx="977.28" cy="311.25" r="21.84"/><circle class="cls-1" cx="977.28" cy="375.97" r="21.84"/><circle class="cls-1" cx="973.93" cy="443.21" r="21.84"/><circle class="cls-1" cx="973.93" cy="507.93" r="21.84"/><circle class="cls-1" cx="973.93" cy="572.64" r="21.84"/><circle class="cls-1" cx="971.01" cy="635.65" r="21.84"/><circle class="cls-1" cx="971.01" cy="700.37" r="21.84"/><circle class="cls-1" cx="971.01" cy="765.08" r="21.84"/><circle class="cls-1" cx="1044.21" cy="54.1" r="21.84"/><circle class="cls-1" cx="1044.21" cy="118.81" r="21.84"/><circle class="cls-1" cx="1044.21" cy="183.53" r="21.84"/><circle class="cls-1" cx="1041.28" cy="246.54" r="21.84"/><circle class="cls-1" cx="1041.28" cy="311.25" r="21.84"/><circle class="cls-1" cx="1041.28" cy="375.97" r="21.84"/><circle class="cls-1" cx="1037.93" cy="443.21" r="21.84"/><circle class="cls-1" cx="1037.93" cy="507.93" r="21.84"/><circle class="cls-1" cx="1037.93" cy="572.64" r="21.84"/><circle class="cls-1" cx="1035.01" cy="635.65" r="21.84"/><circle class="cls-1" cx="1035.01" cy="700.37" r="21.84"/><circle class="cls-1" cx="1035.01" cy="765.08" r="21.84"/><circle class="cls-1" cx="129.21" cy="54.1" r="21.84"/><circle class="cls-1" cx="129.21" cy="118.81" r="21.84"/><circle class="cls-1" cx="129.21" cy="183.53" r="21.84"/><circle class="cls-1" cx="126.28" cy="246.54" r="21.84"/><circle class="cls-1" cx="126.28" cy="311.25" r="21.84"/><circle class="cls-1" cx="126.28" cy="375.97" r="21.84"/><circle class="cls-1" cx="122.93" cy="443.21" r="21.84"/><circle class="cls-1" cx="122.93" cy="507.93" r="21.84"/><circle class="cls-1" cx="122.93" cy="572.64" r="21.84"/><circle class="cls-1" cx="120.01" cy="635.65" r="21.84"/><circle class="cls-1" cx="120.01" cy="700.37" r="21.84"/><circle class="cls-1" cx="120.01" cy="765.08" r="21.84"/><circle class="cls-1" cx="69.21" cy="50.1" r="21.84"/><circle class="cls-1" cx="69.21" cy="114.81" r="21.84"/><circle class="cls-1" cx="69.21" cy="179.53" r="21.84"/><circle class="cls-1" cx="66.28" cy="242.54" r="21.84"/><circle class="cls-1" cx="66.28" cy="307.25" r="21.84"/><circle class="cls-1" cx="66.28" cy="371.97" r="21.84"/><circle class="cls-1" cx="62.93" cy="439.21" r="21.84"/><circle class="cls-1" cx="62.93" cy="503.93" r="21.84"/><circle class="cls-1" cx="62.93" cy="568.64" r="21.84"/><circle class="cls-1" cx="60.01" cy="631.65" r="21.84"/><circle class="cls-1" cx="60.01" cy="696.37" r="21.84"/><circle class="cls-1" cx="60.01" cy="761.08" r="21.84"/></g></svg>